<mxfile host="app.diagrams.net" modified="2024-04-29T13:51:08.092Z" agent="Mozilla/5.0 (Windows NT 10.0; Win64; x64) AppleWebKit/537.36 (KHTML, like Gecko) Chrome/124.0.0.0 Safari/537.36" version="24.3.1" etag="I3zO5w0n4shO48j8Psu3" type="device">
  <diagram id="6KnbQCdWhwrIbEAcEsyS" name="Page-1">
    <mxGraphModel dx="1434" dy="746" grid="1" gridSize="10" guides="1" tooltips="1" connect="1" arrows="1" fold="1" page="1" pageScale="1" pageWidth="827" pageHeight="1169" math="0" shadow="0">
      <root>
        <mxCell id="0" />
        <mxCell id="1" parent="0" />
        <mxCell id="J1gca-PjBmzfu1LVyV5c-7" style="edgeStyle=orthogonalEdgeStyle;rounded=0;orthogonalLoop=1;jettySize=auto;html=1;entryX=0;entryY=0.5;entryDx=0;entryDy=0;" edge="1" parent="1" source="J1gca-PjBmzfu1LVyV5c-1" target="J1gca-PjBmzfu1LVyV5c-2">
          <mxGeometry relative="1" as="geometry" />
        </mxCell>
        <mxCell id="J1gca-PjBmzfu1LVyV5c-1" value="Veterinaire" style="shape=umlActor;verticalLabelPosition=bottom;verticalAlign=top;html=1;outlineConnect=0;" vertex="1" parent="1">
          <mxGeometry x="100" y="370" width="30" height="60" as="geometry" />
        </mxCell>
        <mxCell id="J1gca-PjBmzfu1LVyV5c-8" style="edgeStyle=orthogonalEdgeStyle;rounded=0;orthogonalLoop=1;jettySize=auto;html=1;entryX=0;entryY=0.5;entryDx=0;entryDy=0;" edge="1" parent="1" source="J1gca-PjBmzfu1LVyV5c-2" target="J1gca-PjBmzfu1LVyV5c-3">
          <mxGeometry relative="1" as="geometry" />
        </mxCell>
        <mxCell id="J1gca-PjBmzfu1LVyV5c-9" style="edgeStyle=orthogonalEdgeStyle;rounded=0;orthogonalLoop=1;jettySize=auto;html=1;entryX=0;entryY=0.5;entryDx=0;entryDy=0;" edge="1" parent="1" source="J1gca-PjBmzfu1LVyV5c-2" target="J1gca-PjBmzfu1LVyV5c-4">
          <mxGeometry relative="1" as="geometry" />
        </mxCell>
        <mxCell id="J1gca-PjBmzfu1LVyV5c-10" style="edgeStyle=orthogonalEdgeStyle;rounded=0;orthogonalLoop=1;jettySize=auto;html=1;entryX=0;entryY=0.5;entryDx=0;entryDy=0;" edge="1" parent="1" source="J1gca-PjBmzfu1LVyV5c-2" target="J1gca-PjBmzfu1LVyV5c-5">
          <mxGeometry relative="1" as="geometry" />
        </mxCell>
        <mxCell id="J1gca-PjBmzfu1LVyV5c-2" value="Se connecter" style="ellipse;whiteSpace=wrap;html=1;" vertex="1" parent="1">
          <mxGeometry x="210" y="370" width="120" height="80" as="geometry" />
        </mxCell>
        <mxCell id="J1gca-PjBmzfu1LVyV5c-3" value="Créer un rapport / animal" style="ellipse;whiteSpace=wrap;html=1;" vertex="1" parent="1">
          <mxGeometry x="414" y="260" width="120" height="80" as="geometry" />
        </mxCell>
        <mxCell id="J1gca-PjBmzfu1LVyV5c-4" value="Mettre un commentaire sur un habitat" style="ellipse;whiteSpace=wrap;html=1;" vertex="1" parent="1">
          <mxGeometry x="413.5" y="370" width="120" height="80" as="geometry" />
        </mxCell>
        <mxCell id="J1gca-PjBmzfu1LVyV5c-5" value="Voir régime alimentaire / animal" style="ellipse;whiteSpace=wrap;html=1;" vertex="1" parent="1">
          <mxGeometry x="414" y="470" width="120" height="80" as="geometry" />
        </mxCell>
      </root>
    </mxGraphModel>
  </diagram>
</mxfile>
